<?xml version="1.0" standalone="no"?>
<!DOCTYPE svg PUBLIC "-//W3C//DTD SVG 20010904//EN"
 "http://www.w3.org/TR/2001/REC-SVG-20010904/DTD/svg10.dtd">
<svg version="1.0" xmlns="http://www.w3.org/2000/svg"
 width="300.000000pt" height="299.000000pt" viewBox="0 0 300.000000 299.000000"
 preserveAspectRatio="xMidYMid meet">
<metadata>
Created by potrace 1.10, written by Peter Selinger 2001-2011
</metadata>
<g transform="translate(0.000000,299.000000) scale(0.100000,-0.100000)"
fill="#000000" stroke="none">
<path d="M1275 2783 c-68 -9 -190 -45 -260 -78 -66 -30 -81 -43 -140 -117
-212 -265 -359 -574 -401 -840 -17 -107 -16 -260 2 -278 25 -25 159 -50 274
-51 116 -2 310 10 310 18 0 2 -15 24 -34 49 -69 90 -134 293 -157 489 -22 185
2 539 40 600 12 20 12 20 7 0 -6 -25 -23 -169 -31 -254 -9 -94 13 -289 47
-430 16 -68 33 -131 38 -140 4 -9 20 -47 35 -84 15 -37 45 -94 66 -125 64 -96
63 -96 106 -87 21 5 65 7 98 6 58 -1 61 -3 102 -48 l41 -48 42 48 c39 44 45
47 90 47 l49 0 -30 49 -31 50 35 35 c46 46 61 93 54 172 l-6 63 41 12 c61 16
119 4 154 -32 27 -29 29 -35 29 -115 0 -46 3 -83 6 -81 3 1 28 28 56 59 124
143 166 308 107 426 -49 99 -134 127 -232 78 -52 -26 -153 -125 -208 -202 -39
-55 -43 -57 -63 -45 -12 8 -8 18 18 59 55 86 75 155 74 262 0 143 -51 269
-145 358 l-35 33 -47 -52 c-100 -112 -152 -281 -128 -421 13 -75 35 -131 77
-192 21 -31 24 -41 13 -47 -18 -12 -38 -11 -38 1 0 5 -34 50 -75 100 -84 100
-162 159 -223 167 l-40 5 -12 65 c-7 36 -13 120 -14 186 l-1 120 60 33 c129
73 255 105 412 105 223 0 430 -87 586 -246 140 -143 217 -307 236 -503 30
-316 -107 -600 -376 -780 -56 -38 -67 -42 -126 -42 -67 0 -143 -18 -217 -52
-158 -72 -303 -118 -375 -118 -25 0 -65 9 -87 20 -49 24 -60 20 -21 -8 60 -42
92 -52 161 -52 85 0 169 25 312 91 119 55 203 79 272 79 36 0 48 -4 48 -15 0
-13 3 -13 19 -3 16 10 23 9 40 -6 11 -10 26 -16 33 -14 8 3 5 9 -10 17 -12 6
-22 15 -22 20 0 4 24 24 53 43 107 72 220 205 289 343 96 189 115 460 46 674
-73 230 -242 426 -463 538 -66 34 -186 72 -260 83 -68 9 -209 11 -270 3z m236
-24 c11 -5 19 -17 19 -25 0 -13 -8 -14 -42 -9 -50 9 -78 24 -78 44 0 10 10 12
41 7 23 -4 50 -11 60 -17z m-113 -1 c7 -7 12 -16 12 -20 0 -12 -98 -10 -105 2
-9 15 -25 12 -25 -4 0 -16 -53 -26 -93 -19 -43 8 -32 30 18 36 24 4 51 4 60 1
8 -4 15 -1 15 5 0 15 103 14 118 -1z m244 -25 c10 -9 18 -20 18 -25 0 -25
-103 10 -114 39 -5 13 0 15 36 9 23 -4 50 -14 60 -23z m-498 -9 c30 -12 16
-33 -26 -42 -78 -15 -106 11 -37 35 41 14 43 15 63 7z m602 -21 c22 -14 34
-53 17 -53 -21 1 -88 48 -91 64 -3 16 0 18 23 12 15 -4 38 -14 51 -23z m102
-50 c17 -13 32 -33 32 -44 0 -24 -6 -24 -46 3 -36 25 -57 54 -49 69 7 10 16 7
63 -28z m-801 11 c4 -12 -65 -44 -92 -44 -25 0 -17 28 13 45 30 16 73 16 79
-1z m900 -76 c32 -31 44 -68 22 -68 -17 0 -79 66 -79 84 0 25 21 19 57 -16z
m-477 -25 c49 -59 97 -170 109 -251 13 -87 -2 -179 -44 -263 -45 -89 -61 -107
-90 -101 l-25 4 0 324 c0 192 4 324 9 324 5 0 24 -17 41 -37z m569 -58 c31
-36 39 -59 22 -69 -13 -8 -71 61 -71 84 0 29 14 25 49 -15z m-1173 -37 c-33
-115 -42 -437 -16 -563 5 -27 15 -75 20 -106 12 -66 60 -204 96 -272 28 -54
27 -68 -2 -74 -39 -8 -286 -13 -297 -6 -7 4 -25 8 -42 10 -47 3 -113 24 -126
40 -21 24 -4 252 27 363 14 52 32 107 40 123 8 15 12 27 10 27 -7 0 42 120 56
137 7 8 13 21 14 27 1 7 13 30 26 52 13 21 32 55 42 74 29 59 43 80 64 105 11
12 23 31 26 41 7 23 66 87 73 80 3 -2 -2 -29 -11 -58z m524 -219 c0 -230 -2
-269 -15 -269 -8 0 -20 10 -26 23 -7 12 -15 24 -20 27 -4 3 -16 32 -28 65 -26
77 -25 247 3 310 29 67 67 126 77 120 5 -4 9 -117 9 -276z m729 167 c22 -35
27 -71 12 -80 -13 -9 -51 57 -51 88 0 35 14 33 39 -8z m64 -95 c21 -36 23 -91
3 -91 -16 0 -48 84 -39 105 8 22 17 18 36 -14z m-1256 -95 c-3 -8 0 -19 7 -25
8 -6 11 -22 8 -37 -6 -35 28 -143 49 -155 10 -5 27 -35 39 -66 12 -32 25 -62
30 -68 5 -6 5 -17 0 -25 -12 -18 -13 -73 -2 -86 4 -5 14 -27 21 -49 8 -22 29
-64 47 -93 19 -29 34 -55 34 -58 0 -3 9 -19 21 -35 38 -54 -5 -69 -52 -18 -16
17 -29 33 -29 36 0 3 -8 17 -19 31 -31 45 -98 207 -96 233 1 13 -2 27 -7 30
-34 22 -83 399 -51 399 3 0 3 -6 0 -14z m1313 -32 c12 -36 7 -84 -9 -84 -20 0
-41 107 -25 123 11 11 22 -2 34 -39z m-1195 -35 c48 -25 129 -102 197 -187 46
-57 49 -65 35 -79 -13 -14 -22 -10 -82 40 -63 52 -134 87 -176 87 -18 0 -25
18 -47 118 -9 39 -8 42 12 42 12 0 39 -9 61 -21z m891 -1 c54 -37 78 -92 78
-173 0 -38 -6 -88 -13 -110 -16 -48 -101 -195 -114 -195 -5 0 -6 8 -2 18 23
58 37 143 32 193 -14 159 -126 166 -300 17 -34 -29 -39 -30 -53 -16 -14 14 -9
24 59 105 140 169 233 216 313 161z m340 -85 c7 -45 -2 -74 -21 -77 -11 -1
-19 88 -11 110 11 28 25 13 32 -33z m10 -178 c-9 -14 -21 -25 -26 -25 -17 0
-11 84 7 110 l18 25 9 -42 c7 -34 5 -48 -8 -68z m-439 70 c36 -25 52 -116 28
-155 -4 -6 -15 0 -27 16 -29 36 -77 54 -145 54 l-58 0 35 33 c19 17 37 32 40
33 3 0 21 8 40 17 44 20 60 21 87 2z m-698 -43 l46 -37 -41 -3 c-60 -4 -88 10
-101 53 l-12 37 31 -6 c17 -3 52 -23 77 -44z m346 -11 c114 -51 149 -187 76
-289 -38 -51 -100 -77 -172 -70 -55 6 -87 25 -133 81 -26 33 -30 45 -30 100 1
90 36 147 114 181 47 20 97 19 145 -3z m801 -88 c-6 -49 -26 -80 -44 -69 -12
7 1 80 18 101 23 28 33 17 26 -32z m-1103 16 c29 -8 37 -14 33 -27 -16 -53
-17 -77 -6 -123 8 -33 25 -66 47 -90 l35 -39 -22 -35 -22 -36 -24 22 c-24 22
-88 126 -117 189 -23 52 -57 131 -57 135 0 15 86 17 133 4z m1087 -131 c-12
-50 -20 -66 -37 -72 -22 -9 -26 -2 -18 33 7 35 43 84 55 76 4 -3 4 -20 0 -37z
m-32 -120 c-10 -33 -56 -84 -65 -74 -17 17 36 106 62 106 11 0 12 -6 3 -32z
m-898 -48 c17 -9 18 -14 8 -35 -9 -20 -19 -25 -45 -25 -19 0 -33 3 -31 8 34
68 35 70 68 52z m193 -25 l17 -35 -35 0 c-24 0 -37 6 -45 19 -14 28 -13 39 8
44 34 9 38 7 55 -28z m-78 -22 c13 -30 12 -35 -11 -63 -14 -16 -30 -30 -35
-30 -5 0 -9 30 -9 66 0 61 1 65 21 62 12 -2 26 -16 34 -35z m745 -1 c0 -20
-53 -82 -70 -82 -11 0 -20 3 -20 6 0 9 22 48 38 67 15 17 52 24 52 9z m-72
-120 c-32 -44 -53 -62 -70 -62 -10 0 -18 6 -18 13 0 15 47 62 70 69 23 8 32
-2 18 -20z m-68 -79 c0 -17 -66 -73 -87 -73 -30 0 -29 11 5 42 34 32 82 50 82
31z m-90 -91 c0 -10 -47 -46 -72 -55 -20 -7 -48 1 -48 13 0 5 15 17 33 28 32
20 87 29 87 14z m-105 -71 c3 -5 1 -12 -5 -16 -13 -8 -50 3 -50 16 0 12 47 12
55 0z"/>
<path d="M1355 1884 c-46 -24 -63 -43 -81 -90 -39 -102 37 -214 144 -214 73 0
138 50 162 123 16 50 7 71 -12 27 -21 -48 -49 -71 -96 -77 -74 -10 -142 50
-142 124 0 45 20 77 64 104 25 15 27 19 11 19 -11 0 -33 -7 -50 -16z"/>
<path d="M1445 1848 c6 -16 1 -26 -16 -39 l-24 -19 27 0 c20 0 29 -7 36 -27
l10 -28 7 27 c6 24 11 27 34 21 26 -6 26 -6 8 15 -12 13 -16 28 -12 41 7 23
-4 27 -24 9 -10 -11 -15 -10 -25 5 -18 24 -29 21 -21 -5z"/>
<path d="M2120 1776 c0 -9 2 -16 4 -16 2 0 12 -3 22 -7 12 -4 15 -3 10 5 -5 8
-1 10 11 5 12 -4 15 -3 8 4 -5 6 -20 14 -32 18 -17 5 -23 2 -23 -9z"/>
<path d="M2160 1739 c0 -6 -6 -9 -14 -6 -8 3 -17 -2 -21 -11 -5 -14 -7 -14
-15 -2 -13 21 -22 6 -12 -21 l9 -23 14 22 c22 36 43 29 24 -8 -9 -17 -20 -28
-25 -25 -6 4 -10 -3 -10 -14 0 -23 -38 -53 -54 -44 -6 4 -5 -1 3 -11 11 -13
16 -14 22 -4 7 10 9 10 9 0 0 -7 -6 -15 -14 -18 -8 -3 -12 -12 -9 -21 5 -12 0
-14 -25 -9 -19 5 -33 3 -38 -5 -5 -9 -2 -10 9 -6 11 4 17 1 17 -8 0 -8 5 -15
10 -15 18 0 60 32 55 41 -3 4 15 48 40 97 48 97 50 102 35 102 -5 0 -10 -5
-10 -11z"/>
<path d="M1967 1486 c-3 -8 0 -20 8 -26 7 -6 11 -20 8 -31 -4 -14 -9 -17 -16
-10 -7 7 -15 7 -24 0 -16 -14 -18 -33 -2 -23 7 4 10 1 7 -7 -3 -8 -12 -13 -21
-13 -14 1 -14 -1 0 -22 15 -24 24 -31 21 -16 -4 17 15 62 27 62 6 0 19 8 29
18 15 18 15 20 -4 37 -11 10 -17 21 -15 26 3 4 1 10 -4 13 -5 3 -11 -1 -14 -8z"/>
<path d="M486 1387 c29 -96 175 -209 271 -209 68 0 331 101 456 174 77 46 94
64 51 55 -33 -8 -113 -23 -164 -32 -82 -14 -175 -20 -335 -20 -164 0 -172 1
-228 27 -58 27 -58 27 -51 5z m374 -63 c91 3 185 8 210 11 l45 6 -30 -18 c-16
-9 -32 -18 -35 -18 -3 0 -19 -9 -37 -18 -18 -9 -37 -17 -43 -17 -7 0 -26 -6
-43 -14 -54 -23 -142 -46 -176 -46 -42 0 -126 44 -168 86 -18 19 -33 36 -33
37 0 2 33 -1 73 -6 39 -5 146 -6 237 -3z"/>
<path d="M1847 1343 c-11 -10 -8 -25 3 -18 6 3 10 -1 10 -10 0 -13 6 -15 33
-10 39 9 41 10 34 30 -6 15 -28 22 -26 8 3 -20 -3 -22 -24 -8 -13 8 -27 12
-30 8z"/>
<path d="M1400 1320 c-41 -11 -147 -51 -236 -90 -214 -91 -326 -124 -429 -124
-73 -1 -85 2 -139 32 -75 43 -67 20 12 -35 150 -102 273 -87 652 81 160 72
231 91 335 90 75 0 99 -4 140 -24 73 -35 74 -35 30 5 -65 60 -109 77 -205 81
-63 3 -104 -1 -160 -16z m-74 -69 c-17 -11 -34 -17 -39 -14 -11 7 30 32 53 33
8 0 2 -9 -14 -19z m-91 -41 c-3 -5 -24 -14 -45 -20 -22 -6 -40 -14 -40 -19 0
-4 -7 -8 -16 -8 -12 0 -10 5 7 18 22 17 42 23 62 20 4 -1 10 6 13 14 3 8 10
12 15 9 5 -3 7 -9 4 -14z m-130 -60 c-4 -6 -14 -10 -23 -8 -10 2 -21 -2 -27
-9 -5 -7 -20 -15 -32 -18 -50 -11 -62 -14 -99 -24 -22 -6 -48 -10 -59 -10 -13
1 -10 4 10 9 17 4 46 14 65 21 60 21 65 22 78 20 6 -1 12 2 12 8 0 8 70 31 79
25 1 -1 0 -8 -4 -14z"/>
<path d="M1996 874 c6 -54 4 -66 -7 -62 -7 2 -16 15 -20 29 l-6 24 -4 -25 c-5
-34 -52 -36 -57 -3 -4 27 -27 47 -47 39 -23 -8 -18 -53 7 -70 17 -12 20 -18
10 -28 -14 -14 -16 -28 -4 -28 5 0 14 11 20 25 10 22 18 25 67 25 l55 0 0 70
c0 41 -4 70 -10 70 -7 0 -8 -23 -4 -66z m-108 -42 c3 -21 1 -22 -17 -12 -26
13 -28 43 -3 38 9 -2 18 -14 20 -26z"/>
<path d="M2040 870 c0 -40 3 -70 7 -67 7 7 4 129 -3 136 -2 2 -4 -29 -4 -69z"/>
<path d="M2307 933 c-2 -5 -2 -36 1 -71 l4 -62 172 2 171 3 2 68 c1 37 -2 67
-8 67 -5 0 -9 -29 -9 -65 0 -72 -9 -82 -31 -32 -12 29 -19 33 -64 37 l-50 6
32 19 c31 19 43 35 25 35 -15 0 -72 -52 -66 -61 3 -5 21 -9 40 -9 45 0 74 -16
74 -40 0 -18 -7 -20 -69 -20 -67 0 -70 1 -79 28 l-10 27 -1 -28 c-1 -28 -24
-35 -27 -9 -3 25 -6 26 -14 5 -12 -28 -30 -30 -30 -3 0 11 -4 20 -10 20 -5 0
-10 -9 -10 -21 0 -12 -5 -19 -12 -17 -8 3 -12 25 -12 66 1 55 -6 77 -19 55z"/>
<path d="M2680 870 c0 -40 4 -70 10 -70 6 0 10 30 10 70 0 40 -4 70 -10 70 -6
0 -10 -30 -10 -70z"/>
<path d="M2130 919 c0 -5 9 -9 19 -9 31 0 33 -17 4 -38 -30 -22 -26 -52 7 -52
11 0 20 -4 20 -10 0 -16 86 -12 99 4 14 17 5 60 -16 78 -13 10 -18 8 -34 -10
-22 -28 -16 -48 19 -61 25 -9 24 -10 -13 -8 -35 2 -40 5 -43 27 -8 79 -12 88
-37 88 -14 0 -25 -4 -25 -9z m134 -55 c9 -23 8 -24 -14 -24 -19 0 -27 20 -13
33 11 11 20 8 27 -9z"/>
<path d="M1526 875 c-32 -26 -30 -55 4 -55 11 0 20 -4 20 -10 0 -6 51 -10 134
-10 l135 0 -1 30 c-1 40 -18 50 -18 11 0 -24 -4 -31 -20 -31 -15 0 -20 7 -20
25 0 14 -4 25 -10 25 -5 0 -10 -11 -10 -25 0 -14 -4 -25 -10 -25 -5 0 -10 10
-10 22 0 12 -3 18 -7 14 -5 -4 -8 -13 -8 -19 0 -7 -7 -12 -15 -12 -8 0 -15 5
-15 12 0 6 -3 15 -7 19 -5 4 -8 -2 -8 -14 0 -13 -6 -22 -15 -22 -10 0 -15 10
-15 31 0 18 -4 28 -10 24 -6 -4 -10 -16 -8 -28 2 -18 -2 -22 -22 -22 -22 0
-26 5 -30 42 l-5 41 -29 -23z"/>
<path d="M717 690 c5 -51 3 -60 -11 -60 -11 0 -16 9 -16 29 0 22 -6 32 -22 37
-40 13 -57 11 -78 -8 -25 -24 -26 -48 -1 -48 27 0 51 -10 51 -22 0 -11 -116
-5 -187 8 -19 4 -33 2 -33 -4 0 -11 60 -23 152 -28 57 -3 69 -1 77 15 13 22
-4 41 -36 41 -28 0 -30 16 -3 30 31 16 56 4 66 -33 l10 -32 77 -3 c49 -2 77 1
77 8 0 5 -11 10 -24 10 -27 0 -53 24 -36 35 5 3 19 3 30 0 11 -4 20 -2 20 4 0
16 -19 23 -47 16 -20 -5 -24 -11 -20 -30 3 -20 0 -25 -15 -25 -18 0 -20 6 -15
60 3 44 1 60 -8 60 -10 0 -12 -15 -8 -60z"/>
<path d="M2212 693 c2 -39 -1 -58 -9 -60 -8 -3 -13 4 -13 16 0 11 -5 23 -11
27 -8 5 -10 -1 -7 -20 5 -23 2 -26 -23 -26 -33 0 -45 15 -28 36 16 19 12 22
-38 25 -38 3 -77 -9 -42 -13 8 0 19 -2 24 -3 6 -2 17 -3 25 -4 20 -2 -39 -41
-62 -41 -9 0 -20 9 -23 20 -8 26 -25 26 -18 0 3 -11 -2 -31 -11 -45 -18 -28
-20 -35 -7 -35 5 0 13 9 16 20 4 13 15 20 30 20 13 0 37 8 55 18 30 16 32 16
45 -1 10 -14 24 -17 62 -15 l48 3 3 68 c2 45 -1 67 -8 67 -8 0 -11 -19 -8 -57z"/>
<path d="M2251 688 c2 -70 10 -95 19 -60 8 34 0 122 -12 122 -5 0 -8 -27 -7
-62z"/>
<path d="M2640 690 c0 -48 -3 -60 -16 -60 -10 0 -14 6 -11 14 3 8 -1 22 -8 33
-11 14 -18 16 -32 7 -10 -6 -19 -21 -21 -33 -5 -30 -30 -26 -34 7 -2 21 -8 27
-28 27 -35 0 -41 -42 -9 -66 20 -15 21 -19 10 -33 -11 -13 -11 -16 2 -16 8 0
17 9 20 20 4 16 15 19 73 22 l68 3 1 68 c1 37 -2 67 -7 67 -4 0 -8 -27 -8 -60z
m-132 -44 c3 -13 -1 -17 -14 -14 -11 2 -20 11 -22 22 -3 13 1 17 14 14 11 -2
20 -11 22 -22z m92 4 c0 -11 -6 -20 -14 -20 -18 0 -29 16 -21 30 11 18 35 11
35 -10z"/>
<path d="M2680 680 c0 -40 4 -70 10 -70 6 0 10 30 10 70 0 40 -4 70 -10 70 -6
0 -10 -30 -10 -70z"/>
<path d="M1227 692 c-27 -30 -21 -49 18 -56 19 -4 35 -12 35 -17 0 -11 -104
-7 -182 7 -23 4 -38 3 -38 -3 0 -11 126 -33 190 -33 31 0 40 4 45 21 8 24 -8
39 -42 39 -31 0 -29 28 2 36 14 3 25 10 25 15 0 16 -36 10 -53 -9z"/>
<path d="M1881 684 c-25 -32 -21 -41 24 -50 20 -3 32 -11 28 -16 -6 -10 -95
-6 -175 8 -25 4 -38 3 -38 -4 0 -13 73 -25 160 -26 60 -1 65 1 68 21 3 17 -3
24 -25 29 -15 4 -32 9 -36 11 -13 8 14 33 34 33 11 0 19 5 19 10 0 20 -39 9
-59 -16z"/>
<path d="M875 684 c-21 -22 -19 -40 9 -62 23 -18 24 -20 8 -35 -15 -16 -15
-17 0 -17 9 0 19 9 23 19 4 13 17 21 38 23 28 3 32 7 35 36 2 18 -1 32 -7 32
-6 0 -11 -11 -11 -25 0 -37 -36 -34 -43 4 -7 34 -31 46 -52 25z m35 -18 c0 -2
3 -11 6 -20 4 -10 1 -16 -9 -16 -17 0 -40 24 -30 33 7 8 33 10 33 3z"/>
<path d="M2344 688 c-3 -4 9 -8 25 -8 39 0 39 -10 1 -32 -33 -19 -42 -61 -14
-72 25 -10 74 -7 74 4 0 6 -16 10 -35 10 -52 0 -48 33 6 61 29 14 38 24 31 31
-13 13 -81 18 -88 6z"/>
<path d="M1346 682 c-2 -4 -1 -14 5 -22 14 -23 11 -30 -11 -30 -11 0 -20 -4
-20 -10 0 -6 60 -10 160 -10 l160 0 0 35 c0 19 -5 35 -10 35 -6 0 -8 -11 -4
-25 5 -22 3 -25 -20 -25 -21 0 -26 5 -26 26 0 14 -4 23 -9 20 -5 -3 -7 -15 -4
-26 4 -14 0 -20 -10 -20 -9 0 -18 8 -20 18 -4 16 -5 16 -6 0 -1 -22 -31 -24
-31 -3 0 8 -4 15 -10 15 -5 0 -10 -7 -10 -15 0 -27 -29 -16 -33 13 l-4 27 -2
-27 c-1 -24 -5 -28 -30 -28 -23 0 -31 6 -40 30 -10 31 -16 36 -25 22z"/>
</g>
</svg>
